<svg width="115" height="233" viewBox="0 0 115 233" fill="none" xmlns="http://www.w3.org/2000/svg">
<path d="M34.0455 206.571C34.1183 207.624 34.4696 208.612 34.8682 209.565C35.7737 211.732 37.6539 212.522 39.8881 211.728C41.2253 211.253 42.3144 210.41 43.3623 209.191C43.3623 211.507 43.3092 213.656 43.3737 215.802C43.497 219.905 43.9164 223.969 45.5701 227.791C46.958 230.999 49.3137 232.655 52.2429 232.492C55.1636 232.33 56.8539 230.45 58.0697 228.062C59.6461 224.964 60.3017 221.575 60.9024 218.195C61.3882 215.461 61.7438 212.702 61.8176 209.536C62.2394 210.477 62.4937 211.128 62.8137 211.744C63.9374 213.908 65.2258 215.889 67.8091 216.576C70.526 217.299 72.7173 216.439 74.1189 214.004C75.7058 211.247 76.028 208.154 76.3901 205.093C76.8969 200.812 77.1449 196.507 76.8681 192.197C76.3477 184.094 75.9389 175.969 73.2852 168.181C73.2611 168.111 73.3013 168.018 73.3118 167.934C76.1516 169.8 79.6027 167.937 80.0589 164.296C80.3207 162.205 80.0626 161.224 78.2288 157.411C83.5114 155.759 87.7169 152.394 91.8209 148.87C92.354 148.412 93.0465 148.437 93.6702 148.291C101.943 146.365 107.818 141.305 111.21 133.753C116.041 123.001 115.618 112.148 110.577 101.451C108.479 96.9993 105.485 93.1584 102.736 89.1441C107.327 85.2899 109.217 79.9632 110.409 74.3744C111.82 67.7537 111.446 61.1163 110.272 54.4522C108.836 46.3024 105.645 38.9324 100.682 32.4186C96.6064 27.0687 91.531 22.7501 85.105 20.1272C86.6922 17.9745 87.5607 15.6289 87.0347 13.0262C86.0985 8.39447 81.4602 5.8547 76.6451 7.20761C74.5058 7.80871 72.4459 8.59888 70.518 9.73891C68.2214 2.22563 63.2285 -0.148087 58.3714 0.00706565C53.744 0.154952 50.3463 3.77272 48.498 10.2692C46.8355 9.20052 45.0569 8.40726 43.1849 7.80508C39.5907 6.6489 35.9603 7.56892 33.8124 10.211C31.5818 12.9547 31.4714 16.3927 33.5022 19.8313C33.5879 19.9764 33.6657 20.1264 33.7622 20.3013C28.8252 21.9973 24.4023 24.5227 20.8643 28.2915C14.1177 35.4781 9.87241 43.9727 8.0726 53.6989C6.78361 60.665 6.56225 67.6268 8.07045 74.5584C9.30898 80.251 11.5905 85.4753 15.8171 89.5198C7.8682 96.8442 3.33996 105.988 1.26255 116.452C0.457993 120.505 -0.0312805 124.615 0.0015564 128.742C0.0415192 133.786 0.330429 138.819 2.27718 143.601C3.73034 147.171 7.08719 150.098 12.019 147.961C14.1273 147.047 15.9947 145.83 17.7218 144.355C18.0479 144.076 18.3477 143.767 18.6955 143.438C22.1958 148.007 26.4968 151.565 31.3816 154.448C32.4709 155.091 33.5665 155.726 34.7705 156.12C35.3961 156.325 35.5098 156.561 35.2965 157.212C34.3441 160.124 34.3349 163.126 34.6814 166.128C34.8449 167.544 35.396 168.864 36.7086 169.611C37.3119 169.954 37.0441 170.318 36.9709 170.699C35.6574 177.527 34.4337 184.369 33.9574 191.319C33.8534 192.837 33.628 194.35 33.7778 195.877C33.9716 196.906 33.8654 197.946 33.8561 198.979C33.8361 201.216 33.685 203.455 34.1168 205.676C34.173 205.964 34.1686 206.281 34.0455 206.571Z" fill="#484666"/>
<path d="M34.0455 206.572C34.6517 205.589 33.9525 204.631 33.9788 203.653C34.0372 201.478 34.0047 199.3 33.9936 197.123C33.9914 196.702 34.1247 196.244 33.7781 195.877C33.6912 199.447 33.4069 203.021 34.0455 206.572Z" fill="#423843"/>
<path d="M97.624 98.1803C97.4788 97.6833 97.229 97.1881 97.2199 96.6884C97.2121 96.2558 96.2024 95.5912 97.4514 95.3168C97.6479 95.2736 97.4112 94.8366 97.3036 94.6317C97.0973 94.2385 97.0128 93.8834 97.414 93.6007C97.726 93.3808 98.0951 93.3652 98.3423 93.7028C98.6104 94.0689 98.8521 93.8986 99.118 93.7417C99.9729 93.3437 100.611 92.7866 100.582 91.742C100.229 91.1102 99.6445 90.7247 99.08 90.3117C97.9148 89.4596 97.8629 88.1883 99.1177 87.462C105.421 83.8134 106.702 77.4871 107.765 71.1283C108.228 68.3575 108.507 65.512 108.291 62.6716C107.469 51.9222 104.416 41.9587 97.541 33.4711C94.4789 29.6907 90.7782 26.5552 86.4357 24.2504C84.8875 23.4288 83.3026 22.7359 81.5515 22.4727C81.1695 22.4152 80.7926 22.2707 80.4352 22.1158C79.92 21.8926 79.3266 21.6909 79.3126 20.9917C79.2982 20.2668 79.9141 20.1233 80.4284 19.8865C83.6635 18.3967 85.0289 14.0998 82.9857 11.7226C81.6511 10.1697 79.9017 9.58706 77.9175 10.1104C74.979 10.8855 72.2811 12.1745 69.9635 14.1902C69.4379 14.6475 68.8781 15.1232 68.092 14.7545C67.2983 14.3823 67.5157 13.6396 67.533 13.0252C67.6289 9.6067 66.3947 6.77977 63.6988 4.69227C58.8916 0.969809 53.619 4.32827 52.3845 8.24154C51.786 10.1389 51.7362 12.1013 51.5276 14.0456C51.4664 14.6165 51.5623 15.2416 50.9576 15.5359C50.3351 15.8388 49.753 15.5039 49.2668 15.1463C48.2491 14.3981 47.3253 13.5127 46.2689 12.8287C44.5148 11.6929 42.7057 10.5896 40.5365 10.4756C38.5628 10.3718 36.9416 11.092 35.902 12.8415C34.8734 14.5724 35.1549 16.2861 36.1526 17.9115C36.5586 18.5729 37.1101 19.1489 37.622 19.7408C38.6242 20.8995 38.3726 22.0432 36.9599 22.5312C32.6145 24.0322 28.4035 25.7719 24.8818 28.8564C20.6087 32.5991 17.5105 37.1898 15.0571 42.2622C11.3349 49.9576 9.76925 58.0917 10.2126 66.6025C10.5072 72.2566 11.4572 77.7623 14.4498 82.7295C15.7952 84.9626 17.3162 87.0192 19.6633 88.2765C20.93 88.9551 20.3992 89.9564 20.3027 90.9052C20.251 91.2384 20.402 91.5072 20.6184 91.7237C21.9846 93.0912 23.2489 94.5676 24.8316 95.7061C25.3751 95.8602 25.4455 96.294 25.5936 96.775C26.3181 99.1253 26.6602 101.556 27.1916 103.946C28.9485 107.134 30.834 110.281 34.2966 111.85C38.0296 113.541 41.6995 113.037 45.0935 110.77C46.2236 110.015 46.2018 109.94 46.6674 111.187C48.7818 116.848 54.8053 120.038 61.1033 118.821C65.2164 118.026 68.3857 115.937 70.7941 112.499C72.4373 110.153 71.9954 110.22 74.4417 111.945C77.4075 114.036 79.513 114.101 82.4562 112.026C85.1948 110.094 86.4671 107.285 87.1879 104.144C87.2171 104.017 87.2363 103.887 87.2592 103.758C87.6991 101.282 87.7029 101.271 90.0183 102.051C90.8662 102.337 91.6698 102.207 92.43 101.842C93.8432 101.164 95.3091 100.528 96.371 99.3297C96.7578 98.893 97.5259 98.8993 97.624 98.1803Z" fill="#689EC8"/>
<path d="M97.6239 98.1804C97.1493 98.0539 96.8442 98.1793 96.5148 98.6086C95.4191 100.037 93.7557 100.676 92.2435 101.525C90.9264 102.263 89.7706 101.589 88.7046 101.019C87.5351 100.394 87.2914 100.893 87.1521 101.894C86.8398 104.143 86.419 106.378 85.2029 108.338C83.565 110.977 81.5421 113.127 78.1049 113.111C76.055 113.101 74.7283 111.622 73.2485 110.543C72.3477 109.887 71.9475 110.031 71.4259 110.89C68.0819 116.402 63.212 119.244 56.7422 118.555C52.1934 118.07 48.8912 115.507 47.1004 111.189C47.0171 110.988 46.9527 110.78 46.8818 110.574C46.3598 109.062 46.3611 109.063 45.2002 110.159C42.2051 112.986 34.4959 113.581 31.2464 109.018C29.9928 107.257 28.5487 105.633 27.1913 103.946C27.433 106.543 27.8402 109.118 28.053 111.722C28.3989 115.956 28.1871 120.144 27.6094 124.34C26.8915 129.553 24.7824 134.177 21.8381 138.471C21.5438 138.901 21.2931 139.363 21.0564 139.828C20.6873 140.552 20.8075 141.092 21.3927 141.776C24.6722 145.613 28.3108 149.015 32.6631 151.613C36.5461 153.93 40.8553 155.027 45.2375 155.762C52.8882 157.045 60.5808 156.784 68.2829 156.13C73.0668 155.724 77.6847 154.858 81.8785 152.396C84.1713 151.051 86.4362 149.645 88.1838 147.592C89.4327 146.125 91.164 145.231 92.3993 143.708C96.2125 139.008 98.2262 133.56 99.4446 127.739C100.204 124.109 100.708 120.42 100.673 116.733C100.614 110.415 99.998 104.14 97.6239 98.1804Z" fill="#5884BB"/>
<path d="M50.22 159.693C50.7461 161.632 50.9147 163.567 50.7936 165.521C50.6842 167.285 50.2835 168.976 48.4262 169.687C46.4761 170.434 44.6409 170.099 43.1476 168.552C42.6327 168.018 42.4708 167.961 41.6977 168.474C40.084 169.544 40.0422 171.069 39.7636 172.624C38.8046 177.975 37.7412 183.315 37.2455 188.732C36.746 194.191 36.3108 199.665 36.8783 205.152C36.9815 206.151 37.3339 207.097 37.6647 208.045C37.9843 208.962 38.5357 209.039 39.2749 208.583C40.9448 207.554 41.9685 205.994 42.6806 204.232C44.2418 200.367 44.9067 196.282 45.5266 192.192C46.0935 188.452 46.6278 184.707 47.1831 180.965C47.2341 180.621 47.2889 180.266 47.4198 179.948C47.6541 179.38 47.5782 178.398 48.4059 178.458C49.3384 178.525 49.1539 179.465 49.1699 180.139C49.2563 183.77 48.5869 187.33 48.1421 190.911C47.5206 195.916 46.7011 200.892 46.4804 205.95C46.202 212.328 46.487 218.641 47.8632 224.886C48.1011 225.965 48.5671 226.95 49.2065 227.843C50.692 229.916 53.2047 229.941 54.6591 227.849C56.3405 225.432 57.0132 222.614 57.5208 219.782C58.7569 212.884 59.6605 205.944 59.9747 198.932C60.2435 192.933 60.6192 186.94 60.9538 180.944C60.9941 180.221 60.9207 179.169 61.8088 179.164C62.7031 179.159 62.6602 180.282 62.7067 180.954C63.0209 185.485 62.5731 190.031 62.8483 194.556C63.1435 199.41 63.3641 204.298 64.9132 208.98C65.4132 210.492 66.1428 211.876 67.4293 212.879C69.2627 214.309 71.0991 213.836 71.8984 211.661C72.8808 208.988 73.2932 206.187 73.5307 203.361C73.929 198.623 74.008 193.867 73.6744 189.134C73.2466 183.064 72.7169 176.989 71.145 171.069C70.9032 170.159 70.6687 169.571 69.4338 169.71C67.7866 169.896 66.5085 168.97 65.6536 167.582C64.4463 165.622 63.7925 163.454 63.5914 161.173C63.4943 160.073 63.1495 159.632 61.9333 159.66C58.0614 159.75 54.1865 159.693 50.22 159.693Z" fill="#4068A2"/>
<path d="M24.8313 95.706C23.6906 93.7578 21.6887 92.6217 20.3027 90.9048C16.35 92.461 13.9769 95.686 11.7216 99.0325C7.1055 105.882 4.45728 113.418 3.567 121.636C2.92485 127.564 2.93938 133.439 4.12247 139.288C4.46063 140.96 5.12767 142.526 5.98714 144.004C6.73572 143.919 6.56024 143.271 6.69197 142.824C7.93535 138.598 9.93404 134.712 12.0051 130.855C11.64 133.184 10.6218 135.286 9.81645 137.456C8.98349 139.701 8.33112 141.999 7.65359 144.291C7.55657 144.619 7.41526 144.952 7.56584 145.306C8.39691 145.745 9.24871 145.67 10.0958 145.38C12.6805 144.497 14.7913 142.917 16.533 140.851C21.1224 135.407 24.1848 129.271 25.0146 122.11C25.5742 117.279 25.269 112.481 24.7382 107.673C24.4093 104.695 23.4326 101.804 23.5335 98.7761C23.5723 97.6161 23.7117 96.4377 24.8313 95.706Z" fill="#4068A2"/>
<path d="M100.582 91.7417C100.094 92.4083 99.6065 93.075 99.1182 93.7415C99.2303 94.7693 99.8676 95.5874 100.247 96.5072C102.415 101.772 103.371 107.293 103.584 112.932C103.914 121.625 102.983 130.144 99.5009 138.238C98.7911 139.889 97.8334 141.389 96.8272 142.866C96.4968 143.351 96.0546 143.781 95.8904 144.566C98.406 143.282 100.713 141.945 102.714 140.125C107.683 135.604 110.159 129.898 111.059 123.307C111.867 117.382 111.287 111.689 109.181 106.12C107.175 100.812 104.207 96.0809 100.582 91.7417Z" fill="#4068A2"/>
<path d="M37.6155 163.157C37.6935 163.98 37.5712 164.896 37.8818 165.789C38.2746 166.92 38.982 167.142 39.8937 166.337C40.6059 165.709 40.9244 164.842 41.2271 163.977C41.4335 163.387 41.6453 162.761 42.3783 162.729C43.1297 162.697 43.5444 163.243 43.8275 163.864C44.2232 164.732 44.5079 165.668 45.2477 166.327C45.7077 166.737 46.2404 167.087 46.8964 166.878C47.5637 166.666 47.58 166.046 47.6309 165.483C47.8014 163.596 47.7474 161.756 46.7686 160.034C46.4331 159.444 46.0177 159.123 45.3801 159.008C43.3259 158.638 41.2898 158.176 39.3101 157.518C38.6615 157.303 38.4751 157.5 38.3166 158.056C37.8488 159.698 37.6199 161.369 37.6155 163.157Z" fill="#FCC918"/>
<path d="M70.9147 164.247C70.8043 163.419 70.6391 162.605 70.6083 161.786C70.5906 161.317 70.4348 160.651 71.1452 160.482C71.7425 160.341 72.2852 160.561 72.6185 161.089C73.3372 162.226 74.0211 163.385 74.7199 164.535C74.9601 164.93 75.0918 165.5 75.7123 165.4C76.3259 165.301 76.6433 164.857 76.8238 164.267C77.254 162.862 76.1839 159.488 75.0175 158.63C74.8217 158.486 74.6296 158.472 74.4096 158.52C71.9473 159.05 69.4238 159.097 66.9404 159.461C66.5752 159.515 66.0847 159.383 66.2977 160.068C66.8122 161.722 67.2362 163.408 67.8389 165.029C68.1429 165.846 68.6121 166.861 69.7968 166.511C70.8817 166.191 70.83 165.146 70.9147 164.247Z" fill="#FCCA18"/>
<path d="M7.56614 145.306C8.34325 144.503 8.3423 143.392 8.60578 142.42C9.64502 138.587 11.4092 135.014 12.5196 131.21C12.6388 130.802 13.0266 130.301 12.5729 130.027C11.9676 129.662 11.7554 130.347 11.5456 130.723C9.48019 134.417 7.80808 138.291 6.33944 142.257C6.1275 142.829 6.47912 143.499 5.98756 144.004C6.34307 144.645 6.88942 145.054 7.56614 145.306Z" fill="#355B92"/>
<path d="M59.6351 59.4565C55.9765 59.7891 53.1388 61.4295 50.8542 64.0635C49.9997 65.0486 49.2835 66.1496 48.6615 67.3064C48.1735 68.2135 48.1949 69.1319 48.8392 69.8776C51.406 72.8488 54.0711 75.7434 57.3152 77.9931C59.7777 79.7007 61.9132 79.5341 64.2779 77.6965C66.889 75.6674 68.8783 73.0653 70.8538 70.4624C71.7212 69.3196 71.7713 67.968 71.0393 66.7615C68.4146 62.4358 64.6364 59.8741 59.6351 59.4565Z" fill="#484666"/>
<path d="M21.6959 71.3967C21.7126 74.6088 24.4063 77.2477 27.6465 77.2262C30.7307 77.2058 33.4478 74.4507 33.4502 71.3416C33.4528 67.9053 30.8276 65.1939 27.5084 65.2046C24.1369 65.2155 21.6775 67.8356 21.6959 71.3967Z" fill="#EFE0AE"/>
<path d="M97.84 71.0479C97.7858 67.803 94.9761 64.9597 91.8585 64.995C88.8523 65.029 86.1326 67.8765 86.1322 70.9903C86.1317 74.2876 88.945 77.2423 91.9784 77.1305C95.3293 77.007 97.895 74.3445 97.84 71.0479Z" fill="#EFE0AE"/>
<path d="M31.1297 61.8311C31.0981 64.6869 33.4791 67.1962 36.2713 67.2496C39.0394 67.3025 41.5027 64.8305 41.5334 61.969C41.5645 59.0615 39.2396 56.6218 36.4053 56.5878C33.5739 56.5538 31.1615 58.9515 31.1297 61.8311Z" fill="#484666"/>
<path d="M78.2461 61.7595C78.2629 64.562 80.6108 66.9545 83.3675 66.9785C86.3231 67.0042 88.5454 64.7006 88.5307 61.6263C88.5167 58.684 86.1987 56.3376 83.3383 56.3702C80.5532 56.402 78.2287 58.8622 78.2461 61.7595Z" fill="#484666"/>
<path d="M51.5923 68.0473C51.5265 68.3742 51.7226 68.4887 51.8734 68.6438C54.0867 70.9227 56.218 73.2906 58.7962 75.179C60.4539 76.3931 60.8157 76.3553 62.4372 75.1192C64.6466 73.4349 66.3034 71.2466 68.0028 69.0927C68.3162 68.6955 68.3863 68.3785 68.072 67.9391C66.1504 65.2532 63.9204 62.9802 60.4366 62.5606C57.881 62.2527 55.7915 63.3549 53.9718 65.0378C53.0095 65.9281 52.2152 66.9629 51.5923 68.0473Z" fill="#FCC918"/>
</svg>
